<svg width="22" height="29" viewBox="0 0 22 29" fill="none" xmlns="http://www.w3.org/2000/svg">
<path d="M18.6407 8.63947C18.5486 8.63133 18.4557 8.64143 18.3675 8.66919C18.2792 8.69695 18.1973 8.74182 18.1264 8.80124C18.0555 8.86066 17.997 8.93347 17.9543 9.0155C17.9115 9.09754 17.8854 9.18719 17.8773 9.27934L17.8718 9.34111H3.43794L3.4325 9.27934C3.41612 9.09325 3.32648 8.92128 3.1833 8.80127C3.04013 8.68127 2.85515 8.62305 2.66905 8.63943C2.48296 8.65582 2.31099 8.74545 2.19098 8.88863C2.07098 9.0318 2.01276 9.21678 2.02914 9.40288L3.68377 28.1999C3.69923 28.3753 3.77985 28.5386 3.90973 28.6575C4.03961 28.7765 4.20934 28.8425 4.38545 28.8425H16.9243C17.1004 28.8425 17.2702 28.7765 17.4 28.6575C17.5299 28.5386 17.6105 28.3753 17.626 28.1999L19.2806 9.40288C19.297 9.21679 19.2388 9.03182 19.1188 8.88866C18.9988 8.74549 18.8268 8.65586 18.6407 8.63947Z" fill="#9AD143"/>
<path d="M20.535 4.97971H19.0379L17.7612 2.65005C17.409 1.86097 16.8358 1.19078 16.1108 0.720493C15.3859 0.250209 14.5403 -3.78191e-05 13.6762 5.60979e-09H7.63361C6.76949 -4.32619e-05 5.92385 0.250201 5.19891 0.720486C4.47397 1.19077 3.90076 1.86096 3.54857 2.65005L2.27185 4.97971H0.774797C0.569308 4.97971 0.372236 5.06134 0.226933 5.20664C0.0816302 5.35194 0 5.54902 0 5.75451V9.34111C0 9.5466 0.0816302 9.74368 0.226933 9.88898C0.372236 10.0343 0.569308 10.1159 0.774797 10.1159H20.535C20.7405 10.1159 20.9376 10.0343 21.0829 9.88898C21.2282 9.74368 21.3098 9.5466 21.3098 9.34111V5.75451C21.3098 5.65275 21.2898 5.552 21.2508 5.458C21.2119 5.36399 21.1548 5.27858 21.0829 5.20663C21.0109 5.13468 20.9255 5.07761 20.8315 5.03868C20.7375 4.99974 20.6367 4.9797 20.535 4.97971Z" fill="#00A66A"/>
<path d="M12.369 20.5535C11.9983 20.8734 11.5557 21.0989 11.079 21.2108C10.6023 21.3227 10.1056 21.3176 9.63127 21.1959L9.69303 21.1674C9.86255 21.0889 9.99395 20.9463 10.0583 20.7709C10.1227 20.5955 10.1148 20.4018 10.0363 20.2323C9.95782 20.0627 9.81521 19.9313 9.63984 19.867C9.46447 19.8026 9.27072 19.8105 9.1012 19.889L7.43928 20.6583C7.35326 20.6982 7.27617 20.7549 7.21262 20.8252C7.14907 20.8955 7.10036 20.9779 7.06942 21.0675C7.03847 21.1571 7.02593 21.252 7.03254 21.3466C7.03914 21.4411 7.06476 21.5334 7.10787 21.6178L7.94051 23.2489C7.98204 23.3322 8.03965 23.4064 8.11003 23.4673C8.18041 23.5282 8.26215 23.5745 8.35054 23.6037C8.43893 23.6328 8.53221 23.6441 8.625 23.6369C8.71778 23.6298 8.80823 23.6043 8.89111 23.562C8.974 23.5197 9.04767 23.4614 9.10789 23.3904C9.16811 23.3195 9.21367 23.2373 9.24194 23.1486C9.27021 23.06 9.28063 22.9666 9.2726 22.8739C9.26457 22.7812 9.23825 22.691 9.19516 22.6085L9.15301 22.5259C9.86381 22.7312 10.6146 22.7557 11.3373 22.5973C12.06 22.4388 12.7317 22.1023 13.2913 21.6184C13.3613 21.5578 13.4186 21.4841 13.46 21.4014C13.5014 21.3187 13.5261 21.2286 13.5328 21.1364C13.5394 21.0441 13.5278 20.9514 13.4986 20.8637C13.4694 20.7759 13.4232 20.6947 13.3626 20.6248C13.3021 20.5549 13.2283 20.4976 13.1456 20.4562C13.0629 20.4147 12.9729 20.39 12.8806 20.3834C12.7884 20.3768 12.6957 20.3884 12.6079 20.4176C12.5201 20.4468 12.439 20.493 12.369 20.5535Z" fill="#084444"/>
<path d="M7.47029 19.0219C7.34478 18.5486 7.33562 18.052 7.44357 17.5744C7.55152 17.0967 7.77339 16.6523 8.09025 16.279L8.08894 16.3469C8.08716 16.4394 8.10361 16.5313 8.13735 16.6174C8.1711 16.7035 8.22148 16.7822 8.28561 16.8488C8.34975 16.9155 8.42638 16.9689 8.51115 17.0059C8.59591 17.0429 8.68713 17.0629 8.77962 17.0647C8.78422 17.0648 8.78883 17.0648 8.79344 17.0648C8.97785 17.0648 9.15487 16.9924 9.28649 16.8632C9.41811 16.7341 9.49383 16.5584 9.49739 16.3741L9.53268 14.543C9.53452 14.4482 9.51721 14.3541 9.48179 14.2662C9.44636 14.1782 9.39355 14.0984 9.32652 14.0314C9.25982 13.9639 9.18002 13.9108 9.09203 13.8754C9.00405 13.8399 8.90974 13.8228 8.8149 13.8252L6.98384 13.8604C6.89109 13.8618 6.79952 13.8814 6.71439 13.9183C6.62926 13.9552 6.55225 14.0085 6.48779 14.0752C6.42332 14.1419 6.37266 14.2206 6.33872 14.307C6.30478 14.3933 6.28822 14.4855 6.29001 14.5782C6.29179 14.671 6.31188 14.7625 6.34912 14.8474C6.38635 14.9324 6.44 15.0092 6.50699 15.0733C6.57398 15.1375 6.65298 15.1878 6.73946 15.2214C6.82594 15.2549 6.9182 15.271 7.01094 15.2688L7.10354 15.2671C6.60852 15.8167 6.25836 16.4812 6.08476 17.2002C5.91116 17.9193 5.91959 18.6703 6.1093 19.3853C6.1325 19.4754 6.17331 19.56 6.22938 19.6342C6.28546 19.7084 6.35568 19.7708 6.43599 19.8178C6.5163 19.8647 6.60511 19.8953 6.6973 19.9077C6.78949 19.9201 6.88323 19.9142 6.97311 19.8902C7.06298 19.8662 7.14721 19.8246 7.22094 19.7679C7.29466 19.7111 7.35642 19.6404 7.40264 19.5596C7.44887 19.4789 7.47864 19.3898 7.49025 19.2975C7.50186 19.2053 7.49508 19.1116 7.47029 19.0219Z" fill="#084444"/>
<path d="M15.7436 16.9886C15.5885 16.8845 15.3984 16.8462 15.2151 16.8822C15.0318 16.9182 14.8703 17.0255 14.7662 17.1806L14.7144 17.2576C14.548 16.5368 14.2045 15.8689 13.7149 15.3143C13.2254 14.7597 12.6053 14.3359 11.9107 14.0813C11.8238 14.0494 11.7314 14.0348 11.6388 14.0386C11.5462 14.0424 11.4553 14.0644 11.3712 14.1034C11.2871 14.1424 11.2116 14.1976 11.1489 14.2658C11.0862 14.334 11.0376 14.414 11.0058 14.501C10.9741 14.5881 10.9598 14.6805 10.9639 14.7731C10.9679 14.8657 10.9902 14.9566 11.0294 15.0405C11.0686 15.1245 11.124 15.1998 11.1924 15.2624C11.2608 15.3249 11.3409 15.3733 11.428 15.4048C11.8877 15.5734 12.2999 15.8506 12.6293 16.213C12.9586 16.5753 13.1955 17.0119 13.3196 17.4856L13.2647 17.4456C13.1137 17.3372 12.9259 17.2929 12.7424 17.3224C12.5588 17.3518 12.3944 17.4527 12.2848 17.6029C12.1753 17.7531 12.1297 17.9405 12.1578 18.1243C12.1859 18.3081 12.2855 18.4733 12.4349 18.5839L13.9147 19.6628C13.9913 19.7186 14.0784 19.7584 14.1707 19.7798C14.263 19.8012 14.3587 19.8037 14.4521 19.7872C14.5454 19.7708 14.6345 19.7356 14.7139 19.6839C14.7933 19.6322 14.8615 19.565 14.9143 19.4863L15.9355 17.966C16.0397 17.811 16.078 17.6209 16.042 17.4376C16.006 17.2543 15.8987 17.0928 15.7436 16.9886Z" fill="#084444"/>
</svg>
